<svg id="Layer_1" data-name="Layer 1" xmlns="http://www.w3.org/2000/svg" viewBox="0 0 500 500"><defs><style>.cls-1{fill:none;stroke:#fff;stroke-miterlimit:10;stroke-width:5px;}.cls-2{fill:#fff;}</style></defs><circle class="cls-1" cx="250" cy="250" r="227.86"/><circle class="cls-1" cx="250" cy="250" r="134.54"/><path class="cls-2" d="M104.54,355.71c-13.56,7.47-27.31,1.81-33.25-9-5.82-10.56-3.06-20.27,3.18-26.16L80.36,326c-4.37,4-6.29,10.11-2.44,17.1s12.55,11,22.64,5.42c9.74-5.36,11.22-14.9,7.31-22a14.17,14.17,0,0,0-16-7.34l-1.44-7.62c8.07-2,18.31.62,24.16,11.25C120.79,334,118.09,348.25,104.54,355.71Z"/><path class="cls-2" d="M81.13,289.67l1.31,5.75,18.29-4.16,1.8,7.91L56.2,309.69l-4-17.77c-2-8.95,2.91-15.91,10.76-17.69a13.4,13.4,0,0,1,15.57,7.45l16.7-14.79,2,8.89Zm-7.54-1.11c-1.09-4.83-4.62-7.33-8.86-6.36s-6.41,4.75-5.31,9.59l1.91,8.42L75.51,297Z"/><path class="cls-2" d="M47.2,237.52c.76-12.44,10.63-23.59,26.15-22.64s24,13.21,23.27,25.65S86,264.05,70.41,263.1,46.44,250,47.2,237.52ZM89,240.06c.49-8-4.72-16.26-16.15-17S55.25,230,54.76,238s4.72,16.2,16.15,16.89S88.51,248,89,240.06Z"/><path class="cls-2" d="M75.57,144.76,79,137.17l37.91,31.58-3.39,7.58L76,172.18l28.07,25.19-3.36,7.53-48.87-7.12,3.45-7.71,35.57,5.5L63.71,171.24l3.43-7.65,36.55,4Z"/><path class="cls-2" d="M148.14,133l-42.06-8.62,25.58,25.3L126,155.42,92.23,122l7.21-7.29,39.13,8.35-24-23.69,5.66-5.72L154,127.08Z"/><path class="cls-2" d="M174.42,114.32,155.05,70.94l26.8-12,3.06,6.86-19.46,8.68L170.59,86l17.62-7.87,3,6.67-17.62,7.87,5.13,11.5,19.46-8.69,3.06,6.86Z"/><path class="cls-2" d="M204.54,83.94l-5-30.55,7.87-1.29,5,30.08c1.09,6.61,5.32,9.65,11.27,8.67s9-5.22,7.9-11.83l-4.95-30.08,7.94-1.31,5,30.55c1.86,11.31-4.82,18.59-14.67,20.21S206.4,95.24,204.54,83.94Z"/><path class="cls-2" d="M266,77.3l-5.87-.58-1.84,18.67-8.06-.79,4.64-47.28L273,49.11c9.14.89,14.19,7.78,13.4,15.78a13.4,13.4,0,0,1-12,12.43l8.76,20.51L274.1,97Zm3.42-6.8c4.94.48,8.42-2.07,8.84-6.4s-2.48-7.59-7.42-8.07l-8.6-.85-1.42,14.47Z"/><path class="cls-2" d="M326.28,61.65c11.55,4.68,19,17.59,13.12,32s-20.18,18.57-31.73,13.89-18.9-17.57-13-32S314.73,57,326.28,61.65Zm-15.74,38.8c7.45,3,16.92.72,21.22-9.9s-.88-18.87-8.33-21.89-16.85-.69-21.16,9.93S303.15,97.46,310.54,100.45Z"/><path class="cls-2" d="M352.35,110.08l-11.52,14.56-6.3-5L364,82.39l13.82,10.93c7.14,5.65,8.05,14.23,2.9,20.75s-13.71,7.61-20.86,2Zm11-.37c4,3.15,8.16,2.86,10.94-.66s2.2-7.75-1.79-10.91L365.9,93l-9.15,11.56Z"/><path class="cls-2" d="M363.29,143.81l37.39-29.31,18.11,23.1-5.91,4.63-13.15-16.77-9.91,7.77,11.9,15.19-5.74,4.5-11.91-15.18-9.91,7.77,13.14,16.77-5.9,4.63Z"/><path class="cls-2" d="M412.13,188.54l-17.59,5.93L392,186.85l45-15.18,5.63,16.7c2.91,8.63-1,16.32-8.88,19s-15.64-1.09-18.55-9.72Zm9.41,5.67c1.62,4.82,5.27,6.84,9.53,5.41s6.06-5.3,4.43-10.12l-2.67-7.94-14,4.71Z"/><path class="cls-2" d="M422.8,235.13l-.46-5.88-18.7,1.47-.64-8.08,47.36-3.71,1.42,18.16c.72,9.15-5.18,15.33-13.2,15.95a13.4,13.4,0,0,1-14.33-9.63l-18.66,12.22-.71-9.08Zm7.29,2.18c.39,4.94,3.51,7.93,7.85,7.59s7-3.78,6.64-8.72l-.67-8.62-14.49,1.14Z"/><path class="cls-2" d="M404.25,262.17l47.24,4.94-.85,8.13L403.4,270.3Z"/><path class="cls-2" d="M403.47,276.86l7.57,2.28,23.1,34.42,7.36-24.51,7.25,2.18L438.4,325.69l-7.31-2.2-23.2-34.81-7.76,25.86-7.32-2.2Z"/><path class="cls-2" d="M389.93,317.41l40.77,24.37L415.65,367l-6.44-3.85,10.93-18.29-10.81-6.46-9.91,16.56-6.26-3.75,9.9-16.56-10.81-6.46-10.94,18.29-6.44-3.85Z"/><path class="cls-2" d="M160.83,401.57a21.77,21.77,0,0,1,1.22-3.88c4.13-9.39,14.95-14.76,27.39-9.29,11.94,5.26,15.79,16.39,11.69,25.7-3,6.92-9.3,10.86-17.66,12l-13.05,1.73c-2.64.41-5,1.13-6.75,2.83l25.61,11.27-4.31,9.8-39.54-17.4c4.22-9.35,10.55-15.71,22.65-17.27l11.13-1.39c5.73-.72,8.77-2.73,10.4-6.43,1.71-3.87.51-8.53-4.84-10.89-5.69-2.5-10.19.14-12.4,5.17a12.87,12.87,0,0,0-.9,3.14Z"/><path class="cls-2" d="M213.62,407.89c4.46-5.32,11.15-8.68,20.19-7.72s14.87,5.65,18,11.78c3.3,6.41,3.79,13.79,3,21.22s-2.82,14.55-7.39,20.12c-4.37,5.33-11.06,8.69-20.1,7.73s-14.87-5.65-18.11-11.79c-3.3-6.41-3.7-13.78-2.91-21.21S209,413.47,213.62,407.89Zm6.62,36.54a9.76,9.76,0,0,0,8.26,5.68,9.53,9.53,0,0,0,9.19-3.82c2.69-3.25,4.14-8.34,4.79-14.43s.3-11.37-1.66-15.11a9.48,9.48,0,0,0-8.17-5.66,9.74,9.74,0,0,0-9.28,3.81c-2.61,3.25-4.05,8.35-4.7,14.43S218.37,440.7,220.24,444.43Z"/><path class="cls-2" d="M264.1,425.27a22.54,22.54,0,0,1-1.23-3.89c-2-10.06,3.77-20.66,17.1-23.32,12.8-2.55,22.34,4.36,24.33,14.33,1.48,7.41-1.39,14.22-7.59,20l-9.69,8.9c-1.93,1.85-3.46,3.81-3.9,6.19L310.56,442l2.1,10.51-42.37,8.44c-1.91-10.08-.37-18.92,8.63-27.14l8.32-7.53c4.27-3.88,5.62-7.27,4.83-11.24-.83-4.15-4.48-7.27-10.22-6.13-6.09,1.21-8.26,6-7.19,11.34a12.56,12.56,0,0,0,1.08,3.09Z"/><path class="cls-2" d="M340,440.66l-16.86-35.23-12.66,6.06-3.61-7.55c7.67-3.77,11-10.64,9.38-16.66l9.66-4.62,25.21,52.68Z"/><polygon class="cls-1" points="250 165.78 274.75 215.93 330.1 223.97 290.05 263.01 299.5 318.14 250 292.11 200.5 318.14 209.95 263.01 169.9 223.97 225.25 215.93 250 165.78"/></svg>