<svg id="Layer_1" data-name="Layer 1" xmlns="http://www.w3.org/2000/svg" viewBox="0 0 500 500"><defs><style>.cls-1{fill:none;stroke:#fff;stroke-miterlimit:10;stroke-width:5px;}.cls-2{fill:#fff;}</style></defs><circle class="cls-1" cx="250" cy="250" r="227.86"/><circle class="cls-1" cx="250" cy="250" r="134.54"/><path class="cls-2" d="M108,312.32,90,321.8l10.42,19.73,18-9.49,3.75,7.11-42,22.19-3.75-7.11,17.35-9.17L83.32,325.34,66,334.51l-3.79-7.17,42-22.19Z"/><path class="cls-2" d="M94.33,254.17l-34.62,5,36.72,9.69,1,6.9L65,295.19l34.48-4.94,1.11,7.76-47,6.74-1.52-10.61,33.69-20.4-38-9.91L46.18,253l47-6.74Z"/><path class="cls-2" d="M101.63,203.53l-6-.63c3,2.74,5.48,8.24,4,15.66-2.51,12.14-13.65,21.07-29,17.9S48.68,220.12,51.16,208c2.33-11.28,10.31-17.16,18.51-18.08L71,198c-5.57.5-11,4.17-12.51,11.58s2.2,16.54,13.76,18.92c11.35,2.33,18.57-3.84,20.22-11.85,1.93-9.38-3.77-14.25-7.69-15.47L81.58,216.5l-6.89-1.42,4.69-22.77,23.56,4.85Z"/><path class="cls-2" d="M83.46,182.08c-13.48-7.6-15.89-22.27-9.83-33,5.93-10.5,15.63-13.26,23.92-11l-1.5,7.85c-5.71-1.61-11.91,0-15.83,6.91s-2.74,16.45,7.29,22.12c9.69,5.46,18.58,1.71,22.56-5.35a14.19,14.19,0,0,0-2.15-17.45l5.72-5.23c6,5.82,9.1,15.91,3.14,26.47C110.49,184.49,96.94,189.69,83.46,182.08Z"/><path class="cls-2" d="M111.31,135.57c-10.61-11.27-8.56-26,.42-34.45,8.78-8.26,18.87-8,26.12-3.43l-3.76,7c-5-3.23-11.37-3.57-17.17,1.9s-7.51,14.89.39,23.28c7.62,8.1,17.22,7.16,23.13,1.6a14.17,14.17,0,0,0,3.12-17.3l7-3.3c3.95,7.33,4,17.9-4.86,26.21C136.4,145.9,121.92,146.84,111.31,135.57Z"/><path class="cls-2" d="M178.66,111.48,162.07,67l15.75-5.88c12.12-4.52,24.65,0,30,14.27s-1.4,25.77-13.46,30.26Zm12.87-12.66c7.72-2.88,12.27-10.23,8.43-20.52s-12.09-13.08-19.81-10.2l-8,3,11.45,30.7Z"/><path class="cls-2" d="M221.79,97.28,217.39,50l29.22-2.72.7,7.48-21.22,2,1.17,12.54,19.21-1.79.68,7.28-19.22,1.78,1.17,12.54,21.21-2,.69,7.47Z"/><path class="cls-2" d="M286.68,64.54c0-3-1.88-7.64-8.18-8.55-4.77-.69-8.54,2-9.06,5.59-.43,3,1.1,5.51,4.63,6.83l6.57,2.37c8.05,2.85,11.73,8.73,10.78,15.37-1.06,7.29-8,13.4-18.71,11.85-11.93-1.72-16.33-10.21-16.08-17.08l7.73-1c-.24,5,2.62,10,9.39,11,5.63.81,9-1.62,9.49-5.26.44-3-1.46-5.83-5.38-7.28L271.43,76c-6.95-2.49-11.05-7.89-10-14.92,1.14-7.89,9.31-13.34,18.06-12.08,11.08,1.6,14.41,9,14.72,14.37Z"/><path class="cls-2" d="M295.42,102.05l15.14-45,7.75,2.6-15.14,45Z"/><path class="cls-2" d="M342.65,125.18l2.58-5.48c-3.57,1.92-9.59,2.45-16.09-1.44-10.63-6.38-15.37-19.84-7.31-33.29s22.66-15.24,33.23-8.9C365,82,367.86,91.47,366,99.5l-8-1.42c1.37-5.42-.31-11.74-6.8-15.63s-16.33-3.39-22.39,6.72c-6,10-2.53,18.8,4.48,23,8.22,4.93,14.7,1.15,17.15-2.14L337,102l3.62-6,19.94,12-12.37,20.64Z"/><path class="cls-2" d="M373.8,156.57l11.53-41.37-27,23.76-5.31-6,35.67-31.37,6.77,7.69L384.38,147.7l25.31-22.26,5.31,6-35.67,31.37Z"/><path class="cls-2" d="M410.86,185.29l-17.46,6.29L390.67,184l44.71-16.09,6,16.58c3.09,8.58-.67,16.34-8.49,19.16s-15.66-.78-18.74-9.35Zm9.52,5.48c1.73,4.79,5.42,6.74,9.64,5.22s6-5.42,4.23-10.21l-2.83-7.89-13.88,5Z"/><path class="cls-2" d="M422.48,231.71l-.58-5.87-18.67,1.83-.79-8.06L449.71,215l1.79,18.14c.9,9.14-4.88,15.43-12.88,16.21A13.39,13.39,0,0,1,424.1,240l-18.42,12.59-.9-9.07Zm7.33,2c.49,4.94,3.67,7.86,8,7.43s6.95-3.92,6.46-8.85l-.84-8.6L429,225.14Z"/><path class="cls-2" d="M404.46,259.08l47.33,4-.69,8.14-47.33-4Z"/><path class="cls-2" d="M404,273.81l7.61,2.13,23.79,34,6.87-24.66,7.29,2-9.66,34.66-7.36-2.05-23.88-34.35-7.25,26L394,309.51Z"/><path class="cls-2" d="M391.25,314.6l41.25,23.55L418,363.63l-6.51-3.72L422,341.41l-10.94-6.25-9.57,16.76-6.34-3.62,9.57-16.76-10.94-6.24-10.56,18.5-6.52-3.72Z"/><path class="cls-2" d="M160.83,401.57a21.77,21.77,0,0,1,1.22-3.88c4.13-9.39,14.95-14.76,27.39-9.29,11.94,5.26,15.79,16.39,11.69,25.7-3,6.92-9.3,10.86-17.66,12l-13.05,1.73c-2.64.41-5,1.13-6.75,2.83l25.61,11.27-4.31,9.8-39.54-17.4c4.22-9.35,10.55-15.71,22.65-17.27l11.13-1.39c5.73-.72,8.77-2.73,10.4-6.43,1.71-3.87.51-8.53-4.84-10.89-5.69-2.5-10.19.14-12.4,5.17a12.87,12.87,0,0,0-.9,3.14Z"/><path class="cls-2" d="M213.62,407.89c4.46-5.32,11.15-8.68,20.19-7.72s14.87,5.65,18,11.78c3.3,6.41,3.79,13.79,3,21.22s-2.82,14.55-7.39,20.12c-4.37,5.33-11.06,8.69-20.1,7.73s-14.87-5.65-18.11-11.79c-3.3-6.41-3.7-13.78-2.91-21.21S209,413.47,213.62,407.89Zm6.62,36.54a9.75,9.75,0,0,0,8.26,5.68,9.53,9.53,0,0,0,9.19-3.82c2.69-3.25,4.14-8.34,4.79-14.43s.3-11.37-1.66-15.11a9.48,9.48,0,0,0-8.17-5.66,9.74,9.74,0,0,0-9.28,3.81c-2.61,3.25-4.05,8.35-4.7,14.43S218.37,440.7,220.24,444.43Z"/><path class="cls-2" d="M264.1,425.27a22.54,22.54,0,0,1-1.23-3.89c-2-10.06,3.77-20.66,17.1-23.32,12.8-2.55,22.34,4.36,24.33,14.33,1.48,7.41-1.39,14.22-7.59,20l-9.69,8.9c-1.93,1.85-3.46,3.81-3.9,6.19L310.56,442l2.1,10.51-42.37,8.44c-1.91-10.08-.37-18.92,8.63-27.14l8.32-7.53c4.27-3.88,5.62-7.27,4.83-11.24-.83-4.15-4.48-7.27-10.22-6.13-6.09,1.21-8.26,6-7.19,11.34a12.56,12.56,0,0,0,1.08,3.09Z"/><path class="cls-2" d="M340,440.66l-16.86-35.23-12.66,6.06-3.61-7.55c7.67-3.77,11-10.64,9.38-16.66l9.66-4.62,25.21,52.68Z"/><polygon class="cls-1" points="250 165.78 274.75 215.93 330.1 223.97 290.05 263.01 299.5 318.14 250 292.11 200.5 318.14 209.95 263.01 169.9 223.97 225.25 215.93 250 165.78"/></svg>