<?xml version="1.0" encoding="utf-8"?>
<!-- Generator: Adobe Illustrator 24.3.0, SVG Export Plug-In . SVG Version: 6.00 Build 0)  -->
<svg version="1.1" xmlns="http://www.w3.org/2000/svg" xmlns:xlink="http://www.w3.org/1999/xlink" x="0px" y="0px"
	 viewBox="0 0 819.2 234.2" style="enable-background:new 0 0 819.2 234.2;" xml:space="preserve">
<style type="text/css">
	.st0{display:none;}
	.st1{display:inline;}
	.st2{display:inline;clip-path:url(#SVGID_2_);}
	.st3{fill:#1CE5B5;}
	.st4{display:inline;clip-path:url(#SVGID_4_);}
	.st5{fill:#E234CE;}
	.st6{clip-path:url(#SVGID_6_);}
	.st7{fill:#FFFFFF;}
	.st8{clip-path:url(#SVGID_8_);}
	.st9{display:none;fill:#FFFFFF;}
</style>
<g id="Layer_2">
</g>
<g id="Layer_1">
	<g class="st0">
		<defs>
			<polygon id="SVGID_1_" points="345.1,121.1 345.1,142.4 654.5,88.7 738.4,127.8 824.4,144.2 824.4,15.1 -2,15.1 -2,169.4 
				130.6,169.4 			"/>
		</defs>
		<clipPath id="SVGID_2_" class="st1">
			<use xlink:href="#SVGID_1_"  style="overflow:visible;"/>
		</clipPath>
		<g class="st2">
			<path class="st3" d="M43.6,164.6c-11,0-19.8-3.2-26.6-9.6C10.4,148.6,7,140.1,7,129.6V84.7h21v42.5c0,5.5,1.4,9.9,4.2,13
				c2.8,3.1,6.6,4.7,11.5,4.7c4.9,0,8.7-1.6,11.4-4.7c2.7-3.1,4.1-7.5,4.1-12.9V84.7h21v44.9c0,10.5-3.3,19-10,25.4
				C63.4,161.4,54.6,164.6,43.6,164.6z"/>
			<path class="st3" d="M99.2,162.4V56.6h21v105.8H99.2z"/>
			<path class="st3" d="M178.4,143.7h9.6v18.7H173c-8.5,0-15.3-2.5-20.2-7.4s-7.4-11.7-7.4-20.4v-33.1h-14.1V97L162,64.3h4v20.3
				h21.5v16.9h-21.1v30.3c0,3.8,1,6.7,3.1,8.8C171.6,142.7,174.5,143.7,178.4,143.7z"/>
			<path class="st3" d="M242,84.2h6.9v19.8h-9.1c-5.9,0-10.1,1.4-12.7,4.2s-3.8,7.4-3.8,13.8v40.4h-21.1V84.7h13.4l3.7,9.6
				C224.7,87.6,232.3,84.2,242,84.2z"/>
			<path class="st3" d="M322.5,84.5h15.7v77.8h-16.5l-1.8-7c-6.9,6.1-15.9,9.4-25.2,9.3c-7.3,0.1-14.5-1.7-20.9-5.3
				c-6.1-3.5-11.2-8.6-14.6-14.8c-3.5-6.4-5.4-13.7-5.3-21.1c-0.1-7.3,1.7-14.5,5.3-20.9c3.4-6.2,8.5-11.2,14.6-14.7
				c6.4-3.6,13.6-5.4,20.9-5.3c9.4-0.2,18.5,3.2,25.5,9.5L322.5,84.5z M281.2,138.6c8.5,8.1,21.8,8.1,30.3,0c8-8.6,8-21.9,0-30.5
				c-8.5-8.1-21.8-8.1-30.3,0C273.2,116.7,273.2,130,281.2,138.6L281.2,138.6z"/>
			<path class="st3" d="M386,164.6c-9.7,0-17.6-2.5-23.6-7.6c-6-5.1-9-11.8-9-20.1h20.4c-0.1,3,1.2,5.8,3.6,7.7
				c2.4,1.8,5.5,2.7,9.4,2.7c2.8,0.1,5.5-0.6,7.8-2c2-1.2,3.3-3.4,3.2-5.8c0-1.2-0.4-2.4-1.1-3.3c-0.9-1.1-2.1-1.9-3.4-2.4
				c-1.5-0.6-3-1.1-4.6-1.5c-1.5-0.4-3.5-0.7-5.9-1.2c-2.2-0.4-4-0.7-5.5-1s-3.3-0.8-5.5-1.4c-1.9-0.5-3.7-1.2-5.4-2
				c-1.6-0.8-3.2-1.8-4.6-2.9c-1.5-1.1-2.8-2.5-3.9-4c-1-1.7-1.9-3.5-2.4-5.4c-0.7-2.3-1-4.6-1-7c-0.2-7,3.1-13.7,8.6-18
				c5.8-4.6,13.3-6.9,22.6-6.9s16.9,2.4,22.6,7.1c5.7,4.8,8.5,11,8.6,18.8h-19.9c0.1-2.7-1-5.2-3.1-6.9c-2-1.6-4.9-2.3-8.6-2.3
				c-2.7-0.2-5.4,0.5-7.6,2c-1.8,1.2-2.8,3.3-2.8,5.4c0,0.8,0.1,1.6,0.5,2.3c0.4,0.7,0.9,1.3,1.6,1.8c0.8,0.5,1.5,0.9,2.2,1.3
				c1,0.5,2,0.8,3.1,1.1c1.4,0.4,2.5,0.6,3.4,0.8l4,0.7c7.6,1.3,13,2.7,16.3,4.2c8.4,3.8,12.6,10.3,12.6,19.7c0,7.9-3,14.3-8.9,19
				C403.8,162.2,395.9,164.6,386,164.6z"/>
			<path class="st3" d="M470.9,164.6c-7.5,0.1-14.9-1.7-21.5-5.3c-6.3-3.4-11.5-8.5-15.1-14.8c-7.3-13.1-7.3-28.9,0-42
				c3.6-6.2,8.8-11.3,15.1-14.7c13.5-7.1,29.5-7.1,43,0c6.3,3.4,11.5,8.5,15.1,14.7c7.3,13,7.3,29,0,42c-3.6,6.2-8.8,11.3-15.1,14.8
				C485.8,162.9,478.4,164.7,470.9,164.6z M456,138.9c8.4,7.9,21.5,7.9,29.8,0c3.9-4,5.8-9.1,5.8-15.4c0-6.3-1.9-11.4-5.8-15.4
				c-8.4-7.9-21.5-7.9-29.8,0c-3.9,4-5.8,9.1-5.8,15.4S452.2,134.9,456,138.9z"/>
			<path class="st3" d="M572.2,82.8c8.8,0,15.8,2.9,21,8.8c5.2,5.9,7.8,13.8,7.8,23.7v47.1h-21v-43.7c0-11.6-4.5-17.4-13.6-17.4
				c-5.4,0-9.6,1.8-12.8,5.4c-3.1,3.6-4.7,8.6-4.7,14.9v40.8h-21V84.7h14.4l4.1,9.6c3.1-3.6,6.9-6.5,11.2-8.4
				C562.3,83.8,567.2,82.8,572.2,82.8z"/>
			<path class="st3" d="M620.3,74.3V54.8h21v19.5L620.3,74.3z M620.3,162.4V84.7h21v77.8L620.3,162.4z"/>
			<path class="st3" d="M697.5,164.6c-5.6,0-11.1-1.1-16.3-3.2c-10-4-17.8-11.9-21.8-21.8c-2.1-5.2-3.2-10.7-3.2-16.2
				c0-5.5,1-11,3.2-16.2c2-4.9,4.9-9.3,8.7-13c3.8-3.7,8.2-6.6,13.1-8.5c5.2-2.1,10.8-3.2,16.4-3.1c10,0,18.6,2.9,25.8,8.8
				c7.2,5.8,12.1,14,13.7,23.2h-20.9c-1.5-3.7-4.2-6.8-7.5-9c-3.4-2.1-7.3-3.3-11.2-3.2c-5.4-0.1-10.6,2.1-14.2,6.1
				c-3.8,4.1-5.9,9.5-5.7,15.1c-0.1,5.6,1.9,11.1,5.8,15.2c3.6,4,8.8,6.3,14.2,6.2c4,0.1,7.9-1.1,11.2-3.4c3.4-2.4,6-5.8,7.5-9.6
				h21.2c-1.6,9.3-6.4,17.7-13.8,23.7C716.4,161.6,707.7,164.6,697.5,164.6z"/>
			<path class="st3" d="M779,164.6c-9.7,0-17.6-2.5-23.6-7.6c-6-5.1-9-11.8-9-20.1h20.5c-0.1,3,1.2,5.8,3.6,7.7
				c2.4,1.8,5.5,2.7,9.4,2.7c2.8,0.1,5.5-0.6,7.8-2c2-1.2,3.3-3.4,3.2-5.8c0-1.2-0.4-2.4-1.1-3.3c-0.9-1.1-2.1-1.9-3.4-2.4
				c-1.5-0.6-3-1.1-4.6-1.5c-1.5-0.4-3.5-0.7-5.9-1.2c-2.2-0.4-4-0.7-5.5-1c-1.5-0.3-3.3-0.8-5.5-1.4c-1.9-0.5-3.7-1.2-5.4-2
				c-1.6-0.8-3.2-1.8-4.6-2.9c-1.5-1.1-2.8-2.5-3.9-4c-1-1.7-1.8-3.5-2.4-5.4c-0.7-2.3-1-4.6-0.9-7c-0.2-7,3-13.7,8.6-18
				c5.8-4.6,13.3-6.9,22.6-6.9s16.8,2.4,22.6,7.1c5.7,4.8,8.5,11,8.6,18.8h-20c0.1-2.7-1-5.2-3.1-6.9c-2-1.6-4.9-2.3-8.6-2.3
				c-2.7-0.2-5.4,0.5-7.6,2c-1.8,1.2-2.8,3.3-2.8,5.4c0,0.8,0.1,1.6,0.4,2.3c0.4,0.7,0.9,1.3,1.6,1.8c0.8,0.5,1.5,0.9,2.2,1.3
				c1,0.5,2,0.8,3.1,1.1c1.4,0.4,2.5,0.6,3.4,0.8l4,0.7c7.5,1.3,13,2.7,16.3,4.2c8.4,3.8,12.6,10.3,12.6,19.7c0,7.9-3,14.3-8.9,19
				S788.8,164.6,779,164.6z"/>
		</g>
	</g>
	<g class="st0">
		<defs>
			<polygon id="SVGID_3_" points="-33.8,203.1 353.1,116.1 353.1,137.4 662.5,83.7 746.4,122.8 836,139.9 841.3,203.1 			"/>
		</defs>
		<clipPath id="SVGID_4_" class="st1">
			<use xlink:href="#SVGID_3_"  style="overflow:visible;"/>
		</clipPath>
		<g class="st4">
			<path class="st5" d="M51.6,159.6c-11,0-19.8-3.2-26.6-9.6c-6.7-6.4-10.1-14.9-10.1-25.4V79.7h21v42.5c0,5.5,1.4,9.9,4.2,13
				s6.6,4.7,11.5,4.7c4.9,0,8.7-1.6,11.4-4.7c2.7-3.1,4.1-7.5,4.1-12.9V79.7h21v44.9c0,10.5-3.3,19-10,25.4
				C71.4,156.4,62.6,159.6,51.6,159.6z"/>
			<path class="st5" d="M107.2,157.4V51.6h21v105.8H107.2z"/>
			<path class="st5" d="M186.4,138.7h9.6v18.7H181c-8.5,0-15.3-2.5-20.2-7.4s-7.4-11.7-7.4-20.4V96.5h-14.1V92L170,59.3h4v20.3h21.5
				v16.9h-21.1v30.3c0,3.8,1,6.7,3.1,8.8S182.5,138.7,186.4,138.7z"/>
			<path class="st5" d="M250,79.2h6.9v19.8h-9.1c-5.9,0-10.1,1.4-12.7,4.2s-3.8,7.4-3.8,13.8v40.4h-21.1V79.7h13.4l3.7,9.6
				C232.7,82.6,240.3,79.2,250,79.2z"/>
			<path class="st5" d="M330.5,79.5h15.7v77.8h-16.5l-1.8-7c-6.9,6.1-15.9,9.4-25.2,9.3c-7.3,0.1-14.5-1.7-20.9-5.3
				c-6.1-3.5-11.2-8.6-14.6-14.8c-3.5-6.4-5.4-13.7-5.3-21.1c-0.1-7.3,1.7-14.5,5.3-20.9c3.4-6.2,8.5-11.2,14.6-14.7
				c6.4-3.6,13.6-5.4,20.9-5.3c9.4-0.2,18.5,3.2,25.5,9.5L330.5,79.5z M289.2,133.6c8.5,8.1,21.8,8.1,30.3,0c8-8.6,8-21.9,0-30.5
				c-8.5-8.1-21.8-8.1-30.3,0C281.2,111.7,281.2,125,289.2,133.6L289.2,133.6z"/>
			<path class="st5" d="M394,159.6c-9.7,0-17.6-2.5-23.6-7.6c-6-5.1-9-11.8-9-20.1h20.4c-0.1,3,1.2,5.8,3.6,7.7
				c2.4,1.8,5.5,2.7,9.4,2.7c2.8,0.1,5.5-0.6,7.8-2c2-1.2,3.3-3.4,3.2-5.8c0-1.2-0.4-2.4-1.1-3.3c-0.9-1.1-2.1-1.9-3.4-2.4
				c-1.5-0.6-3-1.1-4.6-1.5c-1.5-0.4-3.5-0.7-5.9-1.2c-2.2-0.4-4-0.7-5.5-1s-3.3-0.8-5.5-1.4c-1.9-0.5-3.7-1.2-5.4-2
				c-1.6-0.8-3.2-1.8-4.6-2.9c-1.5-1.1-2.8-2.5-3.9-4c-1-1.7-1.9-3.5-2.4-5.4c-0.7-2.3-1-4.6-1-7c-0.2-7,3.1-13.7,8.6-18
				c5.8-4.6,13.3-6.9,22.6-6.9s16.9,2.4,22.6,7.1c5.7,4.8,8.5,11,8.6,18.8h-19.9c0.1-2.7-1-5.2-3.1-6.9c-2-1.5-4.9-2.3-8.6-2.3
				c-2.7-0.2-5.4,0.5-7.6,2c-1.8,1.2-2.8,3.3-2.8,5.4c0,0.8,0.1,1.6,0.5,2.3c0.4,0.7,0.9,1.3,1.6,1.8c0.8,0.5,1.5,0.9,2.2,1.3
				c1,0.5,2,0.8,3.1,1.1c1.4,0.4,2.5,0.6,3.4,0.8l4,0.7c7.6,1.3,13,2.7,16.3,4.2c8.4,3.8,12.6,10.3,12.6,19.7c0,7.9-3,14.3-8.9,19
				C411.8,157.2,403.9,159.6,394,159.6z"/>
			<path class="st5" d="M478.9,159.6c-7.5,0.1-14.9-1.7-21.5-5.3c-6.3-3.4-11.5-8.5-15.1-14.8c-7.3-13.1-7.3-28.9,0-42
				c3.6-6.2,8.8-11.3,15.1-14.7c13.5-7.1,29.5-7.1,43,0c6.3,3.4,11.5,8.5,15.1,14.7c7.3,13,7.3,29,0,42c-3.6,6.2-8.8,11.3-15.1,14.8
				C493.8,157.9,486.4,159.7,478.9,159.6z M464,133.9c8.4,7.9,21.5,7.9,29.8,0c3.9-4,5.8-9.1,5.8-15.4c0-6.3-1.9-11.4-5.8-15.4
				c-8.4-7.9-21.5-7.9-29.8,0c-3.9,4-5.8,9.1-5.8,15.4S460.2,129.9,464,133.9z"/>
			<path class="st5" d="M580.2,77.8c8.8,0,15.8,2.9,21,8.8c5.2,5.9,7.8,13.8,7.8,23.7v47.1h-21v-43.7c0-11.6-4.5-17.4-13.6-17.4
				c-5.4,0-9.6,1.8-12.8,5.4c-3.1,3.6-4.7,8.6-4.7,14.9v40.8h-21V79.7h14.4l4.1,9.6c3.1-3.6,6.9-6.5,11.2-8.4
				C570.3,78.8,575.2,77.8,580.2,77.8z"/>
			<path class="st5" d="M628.3,69.3V49.8h21v19.5L628.3,69.3z M628.3,157.4V79.7h21v77.8L628.3,157.4z"/>
			<path class="st5" d="M705.5,159.6c-5.6,0-11.1-1.1-16.3-3.2c-10-4-17.8-11.9-21.8-21.8c-2.1-5.2-3.2-10.7-3.2-16.2
				c0-5.5,1-11,3.2-16.2c2-4.9,4.9-9.3,8.7-13c3.8-3.7,8.2-6.6,13.1-8.5c5.2-2.1,10.8-3.2,16.4-3.1c10,0,18.6,2.9,25.8,8.8
				c7.2,5.8,12.1,14,13.7,23.2h-20.9c-1.5-3.7-4.2-6.8-7.5-9c-3.4-2.1-7.3-3.3-11.2-3.2c-5.4-0.1-10.6,2.1-14.2,6.1
				c-3.8,4.1-5.9,9.5-5.7,15.1c-0.1,5.6,1.9,11.1,5.8,15.2c3.6,4,8.8,6.3,14.2,6.2c4,0.1,7.9-1.1,11.2-3.4c3.4-2.4,6-5.8,7.5-9.6
				h21.2c-1.6,9.3-6.4,17.7-13.8,23.7C724.4,156.6,715.7,159.6,705.5,159.6z"/>
			<path class="st5" d="M787,159.6c-9.7,0-17.6-2.5-23.6-7.6c-6-5.1-9-11.8-9-20.1h20.5c-0.1,3,1.2,5.8,3.6,7.7
				c2.4,1.8,5.5,2.7,9.4,2.7c2.8,0.1,5.5-0.6,7.8-2c2-1.2,3.3-3.4,3.2-5.8c0-1.2-0.4-2.4-1.1-3.3c-0.9-1.1-2.1-1.9-3.4-2.4
				c-1.5-0.6-3-1.1-4.6-1.5c-1.5-0.4-3.5-0.7-5.9-1.2c-2.2-0.4-4-0.7-5.5-1c-1.5-0.3-3.3-0.8-5.5-1.4c-1.9-0.5-3.7-1.2-5.4-2
				c-1.6-0.8-3.2-1.8-4.6-2.9c-1.5-1.1-2.8-2.5-3.9-4c-1-1.7-1.8-3.5-2.4-5.4c-0.7-2.3-1-4.6-0.9-7c-0.2-7,3-13.7,8.6-18
				c5.8-4.6,13.3-6.9,22.6-6.9s16.8,2.4,22.6,7.1c5.7,4.8,8.5,11,8.6,18.8h-20c0.1-2.7-1-5.2-3.1-6.9c-2-1.6-4.9-2.3-8.6-2.3
				c-2.7-0.2-5.4,0.5-7.6,2c-1.8,1.2-2.8,3.3-2.8,5.4c0,0.8,0.1,1.6,0.4,2.3c0.4,0.7,0.9,1.3,1.6,1.8c0.8,0.5,1.5,0.9,2.2,1.3
				c1,0.5,2,0.8,3.1,1.1c1.4,0.4,2.5,0.6,3.4,0.8l4,0.7c7.5,1.3,13,2.7,16.3,4.2c8.4,3.8,12.6,10.3,12.6,19.7c0,7.9-3,14.3-8.9,19
				C804.7,157.2,796.8,159.6,787,159.6z"/>
		</g>
	</g>
	<g>
		<defs>
			<polygon id="SVGID_5_" points="-36.8,204.1 350.1,117.1 350.1,138.4 659.5,84.7 743.4,123.8 833,140.9 838.3,204.1 			"/>
		</defs>
		<clipPath id="SVGID_6_">
			<use xlink:href="#SVGID_5_"  style="overflow:visible;"/>
		</clipPath>
		<g class="st6">
			<path class="st7" d="M48.6,160.6c-11,0-19.8-3.2-26.6-9.6c-6.7-6.4-10.1-14.9-10.1-25.4V80.7h21v42.5c0,5.5,1.4,9.9,4.2,13
				c2.8,3.1,6.6,4.7,11.5,4.7c4.9,0,8.7-1.6,11.4-4.7c2.7-3.1,4.1-7.5,4.1-12.9V80.7h21v44.9c0,10.5-3.3,19-10,25.4
				C68.4,157.4,59.6,160.6,48.6,160.6z"/>
			<path class="st7" d="M104.2,158.4V52.6h21v105.8H104.2z"/>
			<path class="st7" d="M183.4,139.7h9.6v18.7H178c-8.5,0-15.3-2.5-20.2-7.4s-7.4-11.7-7.4-20.4V97.5h-14.1V93L167,60.3h4v20.3h21.5
				v16.9h-21.1v30.3c0,3.8,1,6.7,3.1,8.8S179.5,139.7,183.4,139.7z"/>
			<path class="st7" d="M247,80.2h6.9v19.8h-9.1c-5.9,0-10.1,1.4-12.7,4.2s-3.8,7.4-3.8,13.8v40.4h-21.1V80.7h13.4l3.7,9.6
				C229.7,83.6,237.3,80.2,247,80.2z"/>
			<path class="st7" d="M327.5,80.5h15.7v77.8h-16.5l-1.8-7c-6.9,6.1-15.9,9.4-25.2,9.3c-7.3,0.1-14.5-1.7-20.9-5.3
				c-6.1-3.5-11.2-8.6-14.6-14.8c-3.5-6.4-5.4-13.7-5.3-21.1c-0.1-7.3,1.7-14.5,5.3-20.9c3.4-6.2,8.5-11.2,14.6-14.7
				c6.4-3.6,13.6-5.4,20.9-5.3c9.4-0.2,18.5,3.2,25.5,9.5L327.5,80.5z M286.2,134.6c8.5,8.1,21.8,8.1,30.3,0c8-8.6,8-21.9,0-30.5
				c-8.5-8.1-21.8-8.1-30.3,0C278.2,112.7,278.2,126,286.2,134.6L286.2,134.6z"/>
			<path class="st7" d="M391,160.6c-9.7,0-17.6-2.5-23.6-7.6c-6-5.1-9-11.8-9-20.1h20.4c-0.1,3,1.2,5.8,3.6,7.7
				c2.4,1.8,5.5,2.7,9.4,2.7c2.8,0.1,5.5-0.6,7.8-2c2-1.2,3.3-3.4,3.2-5.8c0-1.2-0.4-2.4-1.1-3.3c-0.9-1.1-2.1-1.9-3.4-2.4
				c-1.5-0.6-3-1.1-4.6-1.5c-1.5-0.4-3.5-0.7-5.9-1.2c-2.2-0.4-4-0.7-5.5-1s-3.3-0.8-5.5-1.4c-1.9-0.5-3.7-1.2-5.4-2
				c-1.6-0.8-3.2-1.8-4.6-2.9c-1.5-1.1-2.8-2.5-3.9-4c-1-1.7-1.9-3.5-2.4-5.4c-0.7-2.3-1-4.6-1-7c-0.2-7,3.1-13.7,8.6-18
				c5.8-4.6,13.3-6.9,22.6-6.9s16.9,2.4,22.6,7.1c5.7,4.8,8.5,11,8.6,18.8h-19.9c0.1-2.7-1-5.2-3.1-6.9c-2-1.5-4.9-2.3-8.6-2.3
				c-2.7-0.2-5.4,0.5-7.6,2c-1.8,1.2-2.8,3.3-2.8,5.4c0,0.8,0.1,1.6,0.5,2.3c0.4,0.7,0.9,1.3,1.6,1.8c0.8,0.5,1.5,0.9,2.2,1.3
				c1,0.5,2,0.8,3.1,1.1c1.4,0.4,2.5,0.6,3.4,0.8l4,0.7c7.6,1.3,13,2.7,16.3,4.2c8.4,3.8,12.6,10.3,12.6,19.7c0,7.9-3,14.3-8.9,19
				C408.8,158.2,400.9,160.6,391,160.6z"/>
			<path class="st7" d="M475.9,160.6c-7.5,0.1-14.9-1.7-21.5-5.3c-6.3-3.4-11.5-8.5-15.1-14.8c-7.3-13.1-7.3-28.9,0-42
				c3.6-6.2,8.8-11.3,15.1-14.7c13.5-7.1,29.5-7.1,43,0c6.3,3.4,11.5,8.5,15.1,14.7c7.3,13,7.3,29,0,42c-3.6,6.2-8.8,11.3-15.1,14.8
				C490.8,158.9,483.4,160.7,475.9,160.6z M461,134.9c8.4,7.9,21.5,7.9,29.8,0c3.9-4,5.8-9.1,5.8-15.4c0-6.3-1.9-11.4-5.8-15.4
				c-8.4-7.9-21.5-7.9-29.8,0c-3.9,4-5.8,9.1-5.8,15.4S457.2,130.9,461,134.9z"/>
			<path class="st7" d="M577.2,78.8c8.8,0,15.8,2.9,21,8.8c5.2,5.9,7.8,13.8,7.8,23.7v47.1h-21v-43.7c0-11.6-4.5-17.4-13.6-17.4
				c-5.4,0-9.6,1.8-12.8,5.4c-3.1,3.6-4.7,8.6-4.7,14.9v40.8h-21V80.7h14.4l4.1,9.6c3.1-3.6,6.9-6.5,11.2-8.4
				C567.3,79.8,572.2,78.8,577.2,78.8z"/>
			<path class="st7" d="M625.3,70.3V50.8h21v19.5L625.3,70.3z M625.3,158.4V80.7h21v77.8L625.3,158.4z"/>
			<path class="st7" d="M702.5,160.6c-5.6,0-11.1-1.1-16.3-3.2c-10-4-17.8-11.9-21.8-21.8c-2.1-5.2-3.2-10.7-3.2-16.2
				c0-5.5,1-11,3.2-16.2c2-4.9,4.9-9.3,8.7-13c3.8-3.7,8.2-6.6,13.1-8.5c5.2-2.1,10.8-3.2,16.4-3.1c10,0,18.6,2.9,25.8,8.8
				c7.2,5.8,12.1,14,13.7,23.2h-20.9c-1.5-3.7-4.2-6.8-7.5-9c-3.4-2.1-7.3-3.3-11.2-3.2c-5.4-0.1-10.6,2.1-14.2,6.1
				c-3.8,4.1-5.9,9.5-5.7,15.1c-0.1,5.6,1.9,11.1,5.8,15.2c3.6,4,8.8,6.3,14.2,6.2c4,0.1,7.9-1.1,11.2-3.4c3.4-2.4,6-5.8,7.5-9.6
				h21.2c-1.6,9.3-6.4,17.7-13.8,23.7C721.4,157.6,712.7,160.6,702.5,160.6z"/>
			<path class="st7" d="M784,160.6c-9.7,0-17.6-2.5-23.6-7.6c-6-5.1-9-11.8-9-20.1h20.5c-0.1,3,1.2,5.8,3.6,7.7
				c2.4,1.8,5.5,2.7,9.4,2.7c2.8,0.1,5.5-0.6,7.8-2c2-1.2,3.3-3.4,3.2-5.8c0-1.2-0.4-2.4-1.1-3.3c-0.9-1.1-2.1-1.9-3.4-2.4
				c-1.5-0.6-3-1.1-4.6-1.5c-1.5-0.4-3.5-0.7-5.9-1.2c-2.2-0.4-4-0.7-5.5-1c-1.5-0.3-3.3-0.8-5.5-1.4c-1.9-0.5-3.7-1.2-5.4-2
				c-1.6-0.8-3.2-1.8-4.6-2.9c-1.5-1.1-2.8-2.5-3.9-4c-1-1.7-1.8-3.5-2.4-5.4c-0.7-2.3-1-4.6-0.9-7c-0.2-7,3-13.7,8.6-18
				c5.8-4.6,13.3-6.9,22.6-6.9s16.8,2.4,22.6,7.1c5.7,4.8,8.5,11,8.6,18.8h-20c0.1-2.7-1-5.2-3.1-6.9c-2-1.6-4.9-2.3-8.6-2.3
				c-2.7-0.2-5.4,0.5-7.6,2c-1.8,1.2-2.8,3.3-2.8,5.4c0,0.8,0.1,1.6,0.4,2.3c0.4,0.7,0.9,1.3,1.6,1.8c0.8,0.5,1.5,0.9,2.2,1.3
				c1,0.5,2,0.8,3.1,1.1c1.4,0.4,2.5,0.6,3.4,0.8l4,0.7c7.5,1.3,13,2.7,16.3,4.2c8.4,3.8,12.6,10.3,12.6,19.7c0,7.9-3,14.3-8.9,19
				C801.7,158.2,793.8,160.6,784,160.6z"/>
		</g>
	</g>
	<g>
		<defs>
			<polygon id="SVGID_7_" points="347.1,119.1 347.1,140.4 656.5,86.7 740.4,125.8 826.4,142.2 826.4,13.1 0,13.1 0,167.4 
				132.6,167.4 			"/>
		</defs>
		<clipPath id="SVGID_8_">
			<use xlink:href="#SVGID_7_"  style="overflow:visible;"/>
		</clipPath>
		<g class="st8">
			<path class="st7" d="M45.6,162.6c-11,0-19.8-3.2-26.6-9.6C12.4,146.6,9,138.1,9,127.6V82.7h21v42.5c0,5.5,1.4,9.9,4.2,13
				c2.8,3.1,6.6,4.7,11.5,4.7c4.9,0,8.7-1.6,11.4-4.7c2.7-3.1,4.1-7.5,4.1-12.9V82.7h21v44.9c0,10.5-3.3,19-10,25.4
				C65.4,159.4,56.6,162.6,45.6,162.6z"/>
			<path class="st7" d="M101.2,160.4V54.6h21v105.8H101.2z"/>
			<path class="st7" d="M180.4,141.7h9.6v18.7H175c-8.5,0-15.3-2.5-20.2-7.4s-7.4-11.7-7.4-20.4V99.5h-14.1V95L164,62.3h4v20.3h21.5
				v16.9h-21.1v30.3c0,3.8,1,6.7,3.1,8.8S176.5,141.7,180.4,141.7z"/>
			<path class="st7" d="M244,82.2h6.9v19.8h-9.1c-5.9,0-10.1,1.4-12.7,4.2s-3.8,7.4-3.8,13.8v40.4h-21.1V82.7h13.4l3.7,9.6
				C226.7,85.6,234.3,82.2,244,82.2z"/>
			<path class="st7" d="M324.5,82.5h15.7v77.8h-16.5l-1.8-7c-6.9,6.1-15.9,9.4-25.2,9.3c-7.3,0.1-14.5-1.7-20.9-5.3
				c-6.1-3.5-11.2-8.6-14.6-14.8c-3.5-6.4-5.4-13.7-5.3-21.1c-0.1-7.3,1.7-14.5,5.3-20.9c3.4-6.2,8.5-11.2,14.6-14.7
				c6.4-3.6,13.6-5.4,20.9-5.3c9.4-0.2,18.5,3.2,25.5,9.5L324.5,82.5z M283.2,136.6c8.5,8.1,21.8,8.1,30.3,0c8-8.6,8-21.9,0-30.5
				c-8.5-8.1-21.8-8.1-30.3,0C275.2,114.7,275.2,128,283.2,136.6L283.2,136.6z"/>
			<path class="st7" d="M388,162.6c-9.7,0-17.6-2.5-23.6-7.6c-6-5.1-9-11.8-9-20.1h20.4c-0.1,3,1.2,5.8,3.6,7.7
				c2.4,1.8,5.5,2.7,9.4,2.7c2.8,0.1,5.5-0.6,7.8-2c2-1.2,3.3-3.4,3.2-5.8c0-1.2-0.4-2.4-1.1-3.3c-0.9-1.1-2.1-1.9-3.4-2.4
				c-1.5-0.6-3-1.1-4.6-1.5c-1.5-0.4-3.5-0.7-5.9-1.2c-2.2-0.4-4-0.7-5.5-1s-3.3-0.8-5.5-1.4c-1.9-0.5-3.7-1.2-5.4-2
				c-1.6-0.8-3.2-1.8-4.6-2.9c-1.5-1.1-2.8-2.5-3.9-4c-1-1.7-1.9-3.5-2.4-5.4c-0.7-2.3-1-4.6-1-7c-0.2-7,3.1-13.7,8.6-18
				c5.8-4.6,13.3-6.9,22.6-6.9s16.9,2.4,22.6,7.1c5.7,4.8,8.5,11,8.6,18.8h-19.9c0.1-2.7-1-5.2-3.1-6.9c-2-1.6-4.9-2.3-8.6-2.3
				c-2.7-0.2-5.4,0.5-7.6,2c-1.8,1.2-2.8,3.3-2.8,5.4c0,0.8,0.1,1.6,0.5,2.3c0.4,0.7,0.9,1.3,1.6,1.8c0.8,0.5,1.5,0.9,2.2,1.3
				c1,0.5,2,0.8,3.1,1.1c1.4,0.4,2.5,0.6,3.4,0.8l4,0.7c7.6,1.3,13,2.7,16.3,4.2c8.4,3.8,12.6,10.3,12.6,19.7c0,7.9-3,14.3-8.9,19
				C405.8,160.2,397.9,162.6,388,162.6z"/>
			<path class="st7" d="M472.9,162.6c-7.5,0.1-14.9-1.7-21.5-5.3c-6.3-3.4-11.5-8.5-15.1-14.8c-7.3-13.1-7.3-28.9,0-42
				c3.6-6.2,8.8-11.3,15.1-14.7c13.5-7.1,29.5-7.1,43,0c6.3,3.4,11.5,8.5,15.1,14.7c7.3,13,7.3,29,0,42c-3.6,6.2-8.8,11.3-15.1,14.8
				C487.8,160.9,480.4,162.7,472.9,162.6z M458,136.9c8.4,7.9,21.5,7.9,29.8,0c3.9-4,5.8-9.1,5.8-15.4c0-6.3-1.9-11.4-5.8-15.4
				c-8.4-7.9-21.5-7.9-29.8,0c-3.9,4-5.8,9.1-5.8,15.4S454.2,132.9,458,136.9z"/>
			<path class="st7" d="M574.2,80.8c8.8,0,15.8,2.9,21,8.8c5.2,5.9,7.8,13.8,7.8,23.7v47.1h-21v-43.7c0-11.6-4.5-17.4-13.6-17.4
				c-5.4,0-9.6,1.8-12.8,5.4c-3.1,3.6-4.7,8.6-4.7,14.9v40.8h-21V82.7h14.4l4.1,9.6c3.1-3.6,6.9-6.5,11.2-8.4
				C564.3,81.8,569.2,80.8,574.2,80.8z"/>
			<path class="st7" d="M622.3,72.3V52.8h21v19.5L622.3,72.3z M622.3,160.4V82.7h21v77.8L622.3,160.4z"/>
			<path class="st7" d="M699.5,162.6c-5.6,0-11.1-1.1-16.3-3.2c-10-4-17.8-11.9-21.8-21.8c-2.1-5.2-3.2-10.7-3.2-16.2
				c0-5.5,1-11,3.2-16.2c2-4.9,4.9-9.3,8.7-13c3.8-3.7,8.2-6.6,13.1-8.5c5.2-2.1,10.8-3.2,16.4-3.1c10,0,18.6,2.9,25.8,8.8
				c7.2,5.8,12.1,14,13.7,23.2h-20.9c-1.5-3.7-4.2-6.8-7.5-9c-3.4-2.1-7.3-3.3-11.2-3.2c-5.4-0.1-10.6,2.1-14.2,6.1
				c-3.8,4.1-5.9,9.5-5.7,15.1c-0.1,5.6,1.9,11.1,5.8,15.2c3.6,4,8.8,6.3,14.2,6.2c4,0.1,7.9-1.1,11.2-3.4c3.4-2.4,6-5.8,7.5-9.6
				h21.2c-1.6,9.3-6.4,17.7-13.8,23.7C718.4,159.6,709.7,162.6,699.5,162.6z"/>
			<path class="st7" d="M781,162.6c-9.7,0-17.6-2.5-23.6-7.6c-6-5.1-9-11.8-9-20.1h20.5c-0.1,3,1.2,5.8,3.6,7.7
				c2.4,1.8,5.5,2.7,9.4,2.7c2.8,0.1,5.5-0.6,7.8-2c2-1.2,3.3-3.4,3.2-5.8c0-1.2-0.4-2.4-1.1-3.3c-0.9-1.1-2.1-1.9-3.4-2.4
				c-1.5-0.6-3-1.1-4.6-1.5c-1.5-0.4-3.5-0.7-5.9-1.2c-2.2-0.4-4-0.7-5.5-1c-1.5-0.3-3.3-0.8-5.5-1.4c-1.9-0.5-3.7-1.2-5.4-2
				c-1.6-0.8-3.2-1.8-4.6-2.9c-1.5-1.1-2.8-2.5-3.9-4c-1-1.7-1.8-3.5-2.4-5.4c-0.7-2.3-1-4.6-0.9-7c-0.2-7,3-13.7,8.6-18
				c5.8-4.6,13.3-6.9,22.6-6.9s16.8,2.4,22.6,7.1c5.7,4.8,8.5,11,8.6,18.8h-20c0.1-2.7-1-5.2-3.1-6.9c-2-1.6-4.9-2.3-8.6-2.3
				c-2.7-0.2-5.4,0.5-7.6,2c-1.8,1.2-2.8,3.3-2.8,5.4c0,0.8,0.1,1.6,0.4,2.3c0.4,0.7,0.9,1.3,1.6,1.8c0.8,0.5,1.5,0.9,2.2,1.3
				c1,0.5,2,0.8,3.1,1.1c1.4,0.4,2.5,0.6,3.4,0.8l4,0.7c7.5,1.3,13,2.7,16.3,4.2c8.4,3.8,12.6,10.3,12.6,19.7c0,7.9-3,14.3-8.9,19
				S790.8,162.6,781,162.6z"/>
		</g>
	</g>
	<path class="st9" d="M615.8,173.6c2.6,3.1,4.6,6.5,6.2,10.2l-2.5,1.3c-1.5-3.7-3.5-7.2-6-10.3L615.8,173.6z M640.9,174
		c-0.1,0.3-0.4,0.5-0.9,0.5c-3.6,13.4-10.6,21.3-20.7,25.9c-0.5-0.7-1.2-1.3-1.8-1.9c9.9-4.4,16.6-11.8,20-25.6L640.9,174z"/>
	<path class="st9" d="M676.3,194.9v2.4h-29.7v-2.4H676.3z M672.7,175.1v2.5h-22.3v-2.5H672.7z"/>
	<path class="st9" d="M684.5,179.6c1.2,2.5,2.1,5.1,2.7,7.7l-2,0.5c-0.6-2.6-1.5-5.2-2.6-7.7L684.5,179.6z M706,179.8
		c-0.1,0.3-0.4,0.4-0.8,0.4c-2.8,10.5-8.1,17-16.8,20.5c-0.4-0.6-0.9-1.2-1.4-1.7c8.6-3.4,13.5-9.3,16.2-20L706,179.8z M693.3,177.8
		c0.8,2.7,1.4,5.4,1.7,8.2l-2.1,0.4c-0.3-2.7-0.9-5.5-1.7-8.1L693.3,177.8z"/>
	<path class="st9" d="M737.2,176.8c-0.2,0.2-0.3,0.4-0.5,0.5c-3.8,11.7-9.7,19.1-19.6,24.2c-0.5-0.8-1.1-1.4-1.8-2
		c8.9-4.1,15.5-11.9,18.2-21.3h-12.9c-2.2,3.4-4.9,6.4-8.1,8.9c-0.6-0.6-1.3-1.2-2-1.6c5.2-4.1,9.1-9.5,11.5-15.6l3.4,1
		c-0.1,0.4-0.6,0.5-1,0.5c-0.7,1.6-1.5,3.1-2.3,4.5h12.7l0.4-0.2L737.2,176.8z"/>
	<path class="st9" d="M764.9,173.6c-0.1,0.2-0.3,0.3-0.5,0.4c-1.9,4.4-4.3,8.6-7.2,12.4c4.7,3.8,9.1,7.8,13.2,12.2l-2.2,1.9
		c-3.9-4.3-8.1-8.4-12.6-12.1c-3.9,4.8-8.6,8.8-13.8,12.1c-0.6-0.7-1.2-1.4-1.9-1.9c10-5.5,17.8-15.7,21.1-23.5h-17.7v-2.4h19.1
		l0.5-0.2L764.9,173.6z"/>
	<path class="st7" d="M617.8,175.6c2.6,3.1,4.6,6.5,6.2,10.2l-2.5,1.3c-1.5-3.7-3.5-7.2-6-10.3L617.8,175.6z M642.9,176
		c-0.1,0.3-0.4,0.5-0.9,0.5c-3.6,13.4-10.6,21.3-20.7,25.9c-0.5-0.7-1.2-1.3-1.8-1.9c9.9-4.4,16.6-11.8,20-25.6L642.9,176z"/>
	<path class="st7" d="M678.3,196.9v2.4h-29.7v-2.4H678.3z M674.7,177.1v2.5h-22.3v-2.5H674.7z"/>
	<path class="st7" d="M686.5,181.6c1.2,2.5,2.1,5.1,2.7,7.7l-2,0.5c-0.6-2.6-1.5-5.2-2.6-7.7L686.5,181.6z M708,181.8
		c-0.1,0.3-0.4,0.4-0.8,0.4c-2.8,10.5-8.1,17-16.8,20.5c-0.4-0.6-0.9-1.2-1.4-1.7c8.6-3.4,13.5-9.3,16.2-20L708,181.8z M695.3,179.8
		c0.8,2.7,1.4,5.4,1.7,8.2l-2.1,0.4c-0.3-2.7-0.9-5.5-1.7-8.1L695.3,179.8z"/>
	<path class="st7" d="M739.2,178.8c-0.2,0.2-0.3,0.4-0.5,0.5c-3.8,11.7-9.7,19.1-19.6,24.2c-0.5-0.8-1.1-1.4-1.8-2
		c8.9-4.1,15.5-11.9,18.2-21.3h-12.9c-2.2,3.4-4.9,6.4-8.1,8.9c-0.6-0.6-1.3-1.2-2-1.6c5.2-4.1,9.1-9.5,11.5-15.6l3.4,1
		c-0.1,0.4-0.6,0.5-1,0.5c-0.7,1.6-1.5,3.1-2.3,4.5h12.7l0.4-0.2L739.2,178.8z"/>
	<path class="st7" d="M766.9,175.6c-0.1,0.2-0.3,0.3-0.5,0.4c-1.9,4.4-4.3,8.6-7.2,12.4c4.7,3.8,9.1,7.8,13.2,12.2l-2.2,1.9
		c-3.9-4.3-8.1-8.4-12.6-12.1c-3.9,4.8-8.6,8.8-13.8,12.1c-0.6-0.7-1.2-1.4-1.9-1.9c10-5.5,17.8-15.7,21.1-23.5h-17.7v-2.4h19.1
		l0.5-0.2L766.9,175.6z"/>
</g>
</svg>
